<?xml version="1.0" encoding="UTF-8"?>
<svg version="1.1" xmlns="http://www.w3.org/2000/svg" width="500" height="500">
<path d="M0 0 C1.37575184 -0.00233999 1.37575184 -0.00233999 2.77929664 -0.00472724 C5.83585223 -0.00869843 8.89235766 -0.00556264 11.94891357 -0.00241089 C14.14734425 -0.00376669 16.34577469 -0.00554763 18.54420471 -0.00772095 C24.50509607 -0.01227507 30.4659701 -0.01051372 36.42686176 -0.00734186 C42.67393858 -0.00480657 48.92101394 -0.00715918 55.16809082 -0.00872803 C66.33451588 -0.01066329 77.50093459 -0.0075581 88.66735813 -0.00246869 C98.77179327 0.00199436 108.87621692 0.00122634 118.98065186 -0.00338745 C130.73401238 -0.0087517 142.48736731 -0.01072388 154.24072909 -0.00777519 C160.45499621 -0.00621992 166.66925543 -0.00599794 172.88352203 -0.00931168 C178.73088044 -0.01221193 184.57821726 -0.01017522 190.42557335 -0.00441742 C192.5652405 -0.00310111 194.70490948 -0.00346464 196.84457588 -0.00568008 C224.62645794 -0.03178135 224.62645794 -0.03178135 235.57684326 3.12698364 C235.57684326 3.78698364 235.57684326 4.44698364 235.57684326 5.12698364 C236.36059326 5.18885864 237.14434326 5.25073364 237.95184326 5.31448364 C242.92973119 6.43021714 247.1013802 8.73004592 251.57684326 11.12698364 C251.57684326 11.78698364 251.57684326 12.44698364 251.57684326 13.12698364 C252.27809326 13.35385864 252.97934326 13.58073364 253.70184326 13.81448364 C262.75256509 17.94633491 270.1345953 27.40625724 274.57684326 36.12698364 C274.57684326 36.78698364 274.57684326 37.44698364 274.57684326 38.12698364 C275.23684326 38.12698364 275.89684326 38.12698364 276.57684326 38.12698364 C277.53827425 40.41077116 278.46954437 42.70139918 279.38934326 45.00198364 C279.780896 45.92044067 279.780896 45.92044067 280.18035889 46.85745239 C285.73937979 60.99520925 286.01398459 76.46163734 285.92987061 91.43045044 C285.93070411 93.28739021 285.93292863 95.14432979 285.93641663 97.00126648 C285.94132035 100.96247856 285.93736202 104.9235413 285.92640305 108.88474083 C285.90985498 115.17248345 285.91859537 121.46004483 285.9312439 127.74778748 C285.9611742 144.49014584 285.95996775 161.23246943 285.94099104 177.97484094 C285.92859177 188.9968673 285.93070249 200.01868428 285.95937884 211.04068691 C285.97200356 216.25650963 285.97515612 221.47194365 285.95469284 226.68774986 C285.39745563 262.65525618 285.39745563 262.65525618 295.56121826 296.82229614 C296.64692353 299.28601195 297.24956345 301.45567274 297.57684326 304.12698364 C295.80215861 308.2679145 293.73541182 310.40931402 289.57684326 312.12698364 C270.9924235 313.60193759 252.31277295 307.69089052 237.95965576 295.99417114 C218.31623329 278.85841962 210.48681364 259.69333244 208.57684326 234.12698364 C208.4776602 229.60735009 208.5310274 225.09238516 208.58465576 220.57229614 C208.59769931 218.59027787 208.61072267 216.60825927 208.6226635 214.62623405 C208.65283416 209.79334685 208.69257497 204.96062216 208.74822998 200.12796021 C209.24857467 171.70318752 209.24857467 171.70318752 202.38934326 144.31448364 C202.08891113 143.53661499 201.788479 142.75874634 201.47894287 141.95730591 C197.2269734 131.30605127 191.63840337 121.84249884 184.14324951 113.11526489 C182.57684326 111.12698364 182.57684326 111.12698364 181.57684326 108.12698364 C180.91684326 108.12698364 180.25684326 108.12698364 179.57684326 108.12698364 C179.57684326 107.46698364 179.57684326 106.80698364 179.57684326 106.12698364 C178.91684326 106.12698364 178.25684326 106.12698364 177.57684326 106.12698364 C177.57684326 105.46698364 177.57684326 104.80698364 177.57684326 104.12698364 C176.91684326 104.12698364 176.25684326 104.12698364 175.57684326 104.12698364 C175.57684326 103.46698364 175.57684326 102.80698364 175.57684326 102.12698364 C174.58684326 102.12698364 173.59684326 102.12698364 172.57684326 102.12698364 C172.57684326 101.46698364 172.57684326 100.80698364 172.57684326 100.12698364 C171.91684326 100.12698364 171.25684326 100.12698364 170.57684326 100.12698364 C170.57684326 99.46698364 170.57684326 98.80698364 170.57684326 98.12698364 C169.73379639 97.71319458 169.73379639 97.71319458 168.87371826 97.29104614 C166.49065532 96.08330336 164.15894246 94.80521555 161.82684326 93.50198364 C160.62801514 92.83296021 160.62801514 92.83296021 159.40496826 92.15042114 C158.80168701 91.81268677 158.19840576 91.47495239 157.57684326 91.12698364 C157.57684326 90.46698364 157.57684326 89.80698364 157.57684326 89.12698364 C156.81371826 88.90010864 156.05059326 88.67323364 155.26434326 88.43948364 C152.07415948 87.3039945 149.13372328 86.0074311 146.07684326 84.56448364 C142.22958526 82.77994378 138.85330822 81.47372404 134.57684326 81.12698364 C134.57684326 80.46698364 134.57684326 79.80698364 134.57684326 79.12698364 C133.94778076 79.06639771 133.31871826 79.00581177 132.67059326 78.94338989 C126.05326085 78.29560886 119.46387356 77.56737809 112.88934326 76.56448364 C88.69898492 73.64089258 63.75004556 80.81267013 43.57684326 94.12698364 C42.91684326 94.12698364 42.25684326 94.12698364 41.57684326 94.12698364 C41.57684326 94.78698364 41.57684326 95.44698364 41.57684326 96.12698364 C39.99481201 97.46682739 39.99481201 97.46682739 37.76434326 99.06448364 C28.57248652 106.03811628 18.33543899 114.85119646 14.57684326 126.12698364 C13.91684326 126.12698364 13.25684326 126.12698364 12.57684326 126.12698364 C12.29582764 126.85014771 12.01481201 127.57331177 11.72528076 128.31838989 C10.64538585 130.95935739 9.44409079 133.49690833 8.20184326 136.06448364 C5.23490118 142.55849847 3.32643903 149.21770037 1.57684326 156.12698364 C1.36028076 156.96874146 1.14371826 157.81049927 0.92059326 158.67776489 C-3.50782248 178.05208378 -0.95359745 197.21437575 4.45574951 216.05276489 C5.40971655 219.38662051 6.09033702 222.68864181 6.57684326 226.12698364 C7.23684326 226.12698364 7.89684326 226.12698364 8.57684326 226.12698364 C8.9777417 226.99838989 9.37864014 227.86979614 9.79168701 228.76760864 C17.37882004 244.6644588 27.93691992 258.09963889 42.57684326 268.12698364 C43.3077417 268.64003052 44.03864014 269.15307739 44.79168701 269.68167114 C51.92650914 274.58457456 59.13744026 278.05198858 67.20184326 281.18948364 C67.81616211 281.43505005 68.43048096 281.68061646 69.06341553 281.93362427 C81.47772681 286.62574648 93.61641294 287.57672665 106.70965576 287.60354614 C108.32001 287.61790835 109.93035225 287.63367438 111.54067993 287.65075684 C115.7411867 287.69220081 119.94161917 287.71745641 124.14227295 287.73825073 C130.86896874 287.7743416 137.59547997 287.83573736 144.32198715 287.89673996 C146.64596291 287.91553114 148.96988949 287.92746975 151.29391479 287.93817139 C173.27483103 288.07335985 173.27483103 288.07335985 183.32684326 291.18948364 C184.51793701 291.55171021 185.70903076 291.91393677 186.93621826 292.28713989 C187.80762451 292.56428833 188.67903076 292.84143677 189.57684326 293.12698364 C189.57684326 293.78698364 189.57684326 294.44698364 189.57684326 295.12698364 C190.2974292 295.23268677 191.01801514 295.33838989 191.76043701 295.44729614 C194.84164352 296.19088828 196.95378737 297.33336932 199.63934326 299.00198364 C200.47594482 299.51503052 201.31254639 300.02807739 202.17449951 300.55667114 C206.56561325 303.42696012 206.56561325 303.42696012 208.57684326 305.12698364 C208.57684326 305.78698364 208.57684326 306.44698364 208.57684326 307.12698364 C209.44889404 307.50016724 209.44889404 307.50016724 210.33856201 307.88088989 C222.23970666 314.50648351 229.03812564 330.77616528 232.57684326 343.12698364 C233.4956132 347.11334065 234.11488021 351.06380862 234.57684326 355.12698364 C234.71090576 356.26909302 234.84496826 357.41120239 234.98309326 358.58792114 C235.96724841 368.54130846 235.96724841 368.54130846 233.57684326 373.12698364 C231.45184326 374.43948364 231.45184326 374.43948364 229.57684326 375.12698364 C229.57684326 375.78698364 229.57684326 376.44698364 229.57684326 377.12698364 C225.55029422 376.79143789 222.51318718 376.24670215 218.95184326 374.31448364 C206.98500688 368.04722208 193.7820456 366.76123624 180.57684326 365.12698364 C179.36108014 364.95839592 178.14531702 364.7898082 176.89271259 364.61611176 C172.88201576 364.1170691 168.93784566 363.99154906 164.89329529 363.97549438 C164.16326524 363.97126197 163.43323519 363.96702956 162.68108302 363.9626689 C160.25790642 363.94975107 157.83476262 363.94364336 155.41156006 363.93753052 C153.66470138 363.92957929 151.91784464 363.92119065 150.17098999 363.91239929 C146.41971596 363.89439757 142.66844605 363.87936218 138.9171505 363.86662292 C132.97798808 363.84632173 127.03887349 363.81867925 121.0997467 363.78994751 C108.48796807 363.72996483 95.87616053 363.67808617 83.26434326 363.62698364 C69.65732616 363.57181561 56.05032365 363.51519891 42.443353 363.44943476 C36.54723431 363.42121177 30.65112086 363.39757076 24.754969 363.37751007 C21.07680969 363.3640494 17.39867648 363.34664146 13.72053909 363.32819939 C12.02391158 363.32049475 10.32727579 363.31440306 8.63063622 363.31010628 C-14.71284635 363.24871755 -35.83535761 360.11603414 -53.86065674 343.93948364 C-55.42315674 342.12698364 -55.42315674 342.12698364 -55.42315674 340.12698364 C-56.08315674 340.12698364 -56.74315674 340.12698364 -57.42315674 340.12698364 C-75.85508357 318.72566978 -77.72848566 295.83773447 -77.71368408 268.72659302 C-77.71968116 266.51376624 -77.72648939 264.30094153 -77.73403931 262.08811951 C-77.75158027 256.12329551 -77.75638945 250.15852902 -77.75767088 244.19368172 C-77.75909911 240.45799803 -77.76338121 236.72232867 -77.76866531 232.98664856 C-77.78617262 220.60060444 -77.79551049 208.2145907 -77.79400437 195.82853466 C-77.79392445 195.16373669 -77.79384454 194.49893872 -77.79376221 193.81399536 C-77.79368045 193.1483708 -77.79359868 192.48274624 -77.79351445 191.79695123 C-77.79270127 181.0063851 -77.81185874 170.21595843 -77.84003894 159.42543262 C-77.86885842 148.30100077 -77.88220927 137.17662634 -77.88085139 126.05215502 C-77.88034355 119.82440451 -77.88592895 113.59681233 -77.90720749 107.36909485 C-77.92667861 101.51167769 -77.92665386 95.65456863 -77.91217422 89.79714012 C-77.91009646 87.65914137 -77.9147247 85.52112285 -77.92689514 83.38315773 C-78.04936364 60.36236238 -73.60074452 40.43462351 -57.42315674 23.12698364 C-51.34930356 16.99319112 -45.00959206 12.22164907 -37.42315674 8.12698364 C-36.76831299 7.74799927 -36.11346924 7.36901489 -35.43878174 6.97854614 C-24.64564205 1.04677929 -12.09488094 -0.03196814 0 0 Z " fill="#31AC3A" transform="translate(139.42315673828125,60.873016357421875)"/>
<path d="M0 0 C0.33 0 0.66 0 1 0 C2.26349434 5.83218496 2.12647609 11.58936232 2.09765625 17.5234375 C2.0962413 18.62475006 2.09482635 19.72606262 2.09336853 20.86074829 C2.08778752 24.36552692 2.07523846 27.8702408 2.0625 31.375 C2.05748255 33.75650949 2.05292007 36.13801999 2.04882812 38.51953125 C2.03782431 44.34637612 2.02110507 50.17318343 2 56 C1.01 55.34 0.02 54.68 -1 54 C-1.36749268 51.88821411 -1.36749268 51.88821411 -1.35644531 49.24658203 C-1.35944641 48.25860626 -1.36244751 47.27063049 -1.36553955 46.25271606 C-1.35319275 45.18189789 -1.34084595 44.11107971 -1.328125 43.0078125 C-1.32625183 41.91032684 -1.32437866 40.81284119 -1.32244873 39.68209839 C-1.31571622 37.35688244 -1.30177816 35.03167804 -1.28125 32.70654297 C-1.25018936 29.14670281 -1.24028938 25.58730577 -1.234375 22.02734375 C-1.22520128 19.77082794 -1.21482434 17.51431663 -1.203125 15.2578125 C-1.19887512 14.19104279 -1.19462524 13.12427307 -1.19024658 12.025177 C-1.18063904 11.03089691 -1.17103149 10.03661682 -1.16113281 9.01220703 C-1.15430481 8.13887726 -1.14747681 7.26554749 -1.14044189 6.36575317 C-1.00684891 4.11537032 -0.62728769 2.15963733 0 0 Z " fill="#2BA930" transform="translate(423,127)"/>
<path d="M0 0 C0.33 0 0.66 0 1 0 C1 13.86 1 27.72 1 42 C0.34 42 -0.32 42 -1 42 C-1.33 42.66 -1.66 43.32 -2 44 C-2.04966586 38.85881945 -2.08584495 33.71778049 -2.10986328 28.57641602 C-2.11988268 26.82964645 -2.13350195 25.0828935 -2.15087891 23.33618164 C-2.17530669 20.81652715 -2.18652389 18.29709561 -2.1953125 15.77734375 C-2.20563507 15.00414291 -2.21595764 14.23094208 -2.22659302 13.43431091 C-2.22758391 8.57870404 -1.54272894 4.60950327 0 0 Z " fill="#1BA024" transform="translate(424,238)"/>
<path d="M0 0 C0.33 0 0.66 0 1 0 C1.80395025 4.22282518 2.11811363 8.19613764 2.09765625 12.4921875 C2.09443359 13.69101563 2.09121094 14.88984375 2.08789062 16.125 C2.07951172 17.3625 2.07113281 18.6 2.0625 19.875 C2.05798828 21.13570312 2.05347656 22.39640625 2.04882812 23.6953125 C2.0370796 26.79692386 2.02065167 29.89843725 2 33 C1.67 33 1.34 33 1 33 C0.67 29.04 0.34 25.08 0 21 C-0.33 21 -0.66 21 -1 21 C-1.0270203 18.24993392 -1.04684883 15.50013454 -1.0625 12.75 C-1.07087891 11.97269531 -1.07925781 11.19539062 -1.08789062 10.39453125 C-1.09111328 9.64042969 -1.09433594 8.88632813 -1.09765625 8.109375 C-1.10289307 7.41811523 -1.10812988 6.72685547 -1.11352539 6.01464844 C-0.99437971 3.90026102 -0.57618237 2.03358485 0 0 Z " fill="#158B19" transform="translate(423,127)"/>
<path d="M0 0 C5.94 0 11.88 0 18 0 C18 0.99 18 1.98 18 3 C11.73 3 5.46 3 -1 3 C-0.67 2.01 -0.34 1.02 0 0 Z " fill="#16911A" transform="translate(234,134)"/>
<path d="M0 0 C0.33 0 0.66 0 1 0 C1 6.93 1 13.86 1 21 C-2.67952474 16.09396701 -2.29124516 14.82490317 -2 9 C-1.34 9 -0.68 9 0 9 C0 6.03 0 3.06 0 0 Z " fill="#118713" transform="translate(424,184)"/>
<path d="M0 0 C0.33 0 0.66 0 1 0 C1 7.26 1 14.52 1 22 C0.01 21.34 -0.98 20.68 -2 20 C-2.47114738 17.2572492 -2.17805784 14.80441103 -2 12 C-1.67 11.67 -1.34 11.34 -1 11 C-0.76636119 9.15108054 -0.58696365 7.29511969 -0.4375 5.4375 C-0.35371094 4.42558594 -0.26992188 3.41367188 -0.18359375 2.37109375 C-0.12300781 1.58863281 -0.06242187 0.80617187 0 0 Z " fill="#0E8511" transform="translate(424,161)"/>
<path d="M0 0 C0.33 0 0.66 0 1 0 C1.97040422 5.93024803 1.89316269 11.06390334 1 17 C0.34 17 -0.32 17 -1 17 C-1.02721176 15.10424749 -1.04649136 13.20838021 -1.0625 11.3125 C-1.07410156 10.25675781 -1.08570313 9.20101562 -1.09765625 8.11328125 C-1.00865425 5.27589738 -0.64939838 2.7561081 0 0 Z " fill="#29A931" transform="translate(423,176)"/>
</svg>
